<?xml version="1.0" encoding="utf-8"?>
<svg version="1.1" xmlns:xlink="http://www.w3.org/1999/xlink" width="100px" height="96px" xmlns="http://www.w3.org/2000/svg">
  <g transform="matrix(1 0 0 1 -55 -132 )">
    <path d="M 98.1935483870968 13.2525252525253  C 99.3978494623656 14.7609427609428  100 16.5925925925926  100 18.7474747474747  C 100 20.9023569023569  99.3978494623656 22.7340067340067  98.1935483870968 24.2424242424242  L 51.4838709677419 82.7474747474747  L 42.7096774193548 93.7373737373737  C 41.505376344086 95.2457912457913  40.0430107526882 96  38.3225806451613 96  C 36.6021505376344 96  35.1397849462366 95.2457912457913  33.9354838709677 93.7373737373737  L 25.1612903225806 82.7474747474747  L 1.80645161290323 53.4949494949495  C 0.602150537634409 51.986531986532  0 50.1548821548821  0 48  C 0 45.8451178451178  0.602150537634409 44.013468013468  1.80645161290323 42.5050505050505  L 10.5806451612903 31.5151515151515  C 11.7849462365591 30.006734006734  13.247311827957 29.2525252525252  14.9677419354839 29.2525252525253  C 16.6881720430108 29.2525252525252  18.1505376344086 30.006734006734  19.3548387096774 31.5151515151515  L 38.3225806451613 55.3535353535353  L 80.6451612903226 2.26262626262626  C 81.8494623655914 0.754208754208751  83.3118279569893 0  85.0322580645161 0  C 86.752688172043 0  88.2150537634409 0.754208754208751  89.4193548387097 2.26262626262626  L 98.1935483870968 13.2525252525253  Z " fill-rule="nonzero" fill="#009933" stroke="none" transform="matrix(1 0 0 1 55 132 )" />
  </g>
</svg>