<?xml version="1.0" encoding="utf-8"?>
<svg version="1.1" xmlns:xlink="http://www.w3.org/1999/xlink" width="29px" height="27px" xmlns="http://www.w3.org/2000/svg">
  <g transform="matrix(1 0 0 1 -244 -449 )">
    <path d="M 23.5419034090909 12.4453125  C 23.6654829545455 12.5603693181818  23.7272727272727 12.7073863636364  23.7272727272727 12.8863636363636  L 23.7272727272727 14.1136363636364  C 23.7272727272727 14.2926136363636  23.6654829545455 14.4396306818182  23.5419034090909 14.5546875  C 23.4183238636364 14.6697443181818  23.2604166666667 14.7272727272727  23.0681818181818 14.7272727272727  L 15.8181818181818 14.7272727272727  L 15.8181818181818 21.4772727272727  C 15.8181818181818 21.65625  15.7563920454545 21.8032670454545  15.6328125 21.9183238636364  C 15.5092329545455 22.0333806818182  15.3513257575758 22.0909090909091  15.1590909090909 22.0909090909091  L 13.8409090909091 22.0909090909091  C 13.6486742424242 22.0909090909091  13.4907670454545 22.0333806818182  13.3671875 21.9183238636364  C 13.2436079545455 21.8032670454545  13.1818181818182 21.65625  13.1818181818182 21.4772727272727  L 13.1818181818182 14.7272727272727  L 5.93181818181818 14.7272727272727  C 5.73958333333333 14.7272727272727  5.58167613636364 14.6697443181818  5.45809659090909 14.5546875  C 5.33451704545455 14.4396306818182  5.27272727272727 14.2926136363636  5.27272727272727 14.1136363636364  L 5.27272727272727 12.8863636363636  C 5.27272727272727 12.7073863636364  5.33451704545455 12.5603693181818  5.45809659090909 12.4453125  C 5.58167613636364 12.3302556818182  5.73958333333333 12.2727272727273  5.93181818181818 12.2727272727273  L 13.1818181818182 12.2727272727273  L 13.1818181818182 5.52272727272727  C 13.1818181818182 5.34375  13.2436079545455 5.19673295454546  13.3671875 5.08167613636364  C 13.4907670454545 4.96661931818182  13.6486742424242 4.90909090909091  13.8409090909091 4.90909090909091  L 15.1590909090909 4.90909090909091  C 15.3513257575758 4.90909090909091  15.5092329545455 4.96661931818182  15.6328125 5.08167613636364  C 15.7563920454545 5.19673295454546  15.8181818181818 5.34375  15.8181818181818 5.52272727272727  L 15.8181818181818 12.2727272727273  L 23.0681818181818 12.2727272727273  C 23.2604166666667 12.2727272727273  23.4183238636364 12.3302556818182  23.5419034090909 12.4453125  Z M 25.3955965909091 23.6441761363636  C 26.0409564393939 23.0433238636364  26.3636363636364 22.3210227272727  26 21.4772727272727  L 26 5.52272727272727  C 26.3636363636364 4.67897727272727  26.0409564393939 3.95667613636363  25.3955965909091 3.35582386363636  C 24.7502367424242 2.75497159090909  23.9744318181818 2.45454545454546  23.0681818181818 2.45454545454546  L 5.93181818181818 2.45454545454546  C 5.02556818181818 2.45454545454546  4.24976325757576 2.75497159090909  3.60440340909091 3.35582386363636  C 2.95904356060606 3.95667613636363  2.63636363636364 4.67897727272727  3 5.52272727272727  L 3 21.4772727272727  C 2.63636363636364 22.3210227272727  2.95904356060606 23.0433238636364  3.60440340909091 23.6441761363636  C 4.24976325757576 24.2450284090909  5.02556818181818 24.5454545454545  5.93181818181818 24.5454545454545  L 23.0681818181818 24.5454545454545  C 23.9744318181818 24.5454545454545  24.7502367424242 24.2450284090909  25.3955965909091 23.6441761363636  Z M 27.2595880681818 1.62038352272727  C 28.4198626893939 2.70063920454545  29 4.00142045454545  29 5.52272727272727  L 29 21.4772727272727  C 29 22.9985795454545  28.4198626893939 24.2993607954545  27.2595880681818 25.3796164772727  C 26.0993134469697 26.4598721590909  24.702178030303 27  23.0681818181818 27  L 5.93181818181818 27  C 4.29782196969697 27  2.9006865530303 26.4598721590909  1.74041193181818 25.3796164772727  C 0.580137310606061 24.2993607954545  0 22.9985795454545  0 21.4772727272727  L 0 5.52272727272727  C 0 4.00142045454545  0.580137310606061 2.70063920454545  1.74041193181818 1.62038352272727  C 2.9006865530303 0.540127840909088  4.29782196969697 0  5.93181818181818 0  L 23.0681818181818 0  C 24.702178030303 0  26.0993134469697 0.540127840909088  27.2595880681818 1.62038352272727  Z " fill-rule="nonzero" fill="#000000" stroke="none" transform="matrix(1 0 0 1 244 449 )" />
  </g>
</svg>